# Blender v2.83.5 OBJ File: ''
# www.blender.org
mtllib roda.mtl
o roda_wheelfr_Cylinder.002
v 0.000000 0.823271 0.221344
v 0.000000 0.823271 -0.162628
v -0.297125 0.712974 -0.162628
v -0.297125 0.712974 0.221344
v -0.514636 0.411636 -0.162628
v -0.514636 0.411636 0.221344
v -0.594251 0.000001 -0.162629
v -0.594251 0.000001 0.221344
v -0.514636 -0.411636 -0.162629
v -0.514636 -0.411636 0.221343
v -0.297125 -0.712973 -0.162629
v -0.297125 -0.712973 0.221343
v 0.000000 -0.823271 -0.162629
v 0.000000 -0.823271 0.221343
v 0.297125 -0.712973 -0.162630
v 0.297125 -0.712973 0.221343
v 0.514636 -0.411636 -0.162630
v 0.514636 -0.411636 0.221343
v 0.594250 -0.000001 -0.162629
v 0.594250 -0.000001 0.221344
v 0.514636 0.411636 -0.162629
v 0.514636 0.411636 0.221344
v -0.462156 0.000001 -0.258906
v -0.400239 -0.320133 -0.258906
v 0.297125 0.712973 -0.162629
v 0.297126 0.712973 0.221344
v -0.400239 0.320135 -0.258905
v -0.357505 0.285953 -0.258905
v -0.412811 0.000001 -0.258906
v 0.231078 0.554488 -0.258905
v 0.000000 0.640269 -0.258905
v -0.231078 0.554490 -0.258905
v 0.400239 0.320134 -0.258905
v 0.462156 -0.000001 -0.258906
v 0.400239 -0.320135 -0.258906
v 0.231078 -0.554488 -0.258906
v 0.000000 -0.640268 -0.258906
v -0.231078 -0.554488 -0.258906
v -0.357505 0.285953 -0.185649
v -0.412811 0.000001 -0.185650
v 0.412811 -0.000001 -0.258906
v 0.357505 0.285953 -0.258905
v 0.000000 -0.571905 -0.258906
v 0.206405 -0.495285 -0.258906
v -0.357505 -0.285953 -0.258906
v 0.206406 0.495285 -0.258905
v 0.000000 0.571907 -0.258905
v -0.206406 0.495285 -0.258905
v 0.357505 -0.285953 -0.258906
v -0.206406 -0.495285 -0.258906
v 0.000000 -0.571905 -0.185650
v -0.206406 -0.495285 -0.185650
v -0.155213 -0.372446 -0.185650
v 0.000000 -0.430063 -0.185650
v 0.412811 -0.000001 -0.185650
v 0.357505 0.285953 -0.185650
v 0.206405 -0.495285 -0.185651
v -0.357505 -0.285953 -0.185650
v 0.206406 0.495285 -0.185650
v 0.000000 0.571907 -0.185650
v -0.206406 0.495285 -0.185649
v 0.357505 -0.285953 -0.185651
v -0.155213 -0.372446 -0.242482
v 0.000000 -0.430063 -0.242482
v -0.268837 0.215032 -0.185649
v -0.310427 0.000001 -0.185650
v 0.310426 -0.000001 -0.185650
v 0.268837 0.215032 -0.185650
v 0.155213 -0.372446 -0.185651
v -0.268837 -0.215032 -0.185650
v 0.155213 0.372446 -0.185650
v 0.000000 0.430063 -0.185650
v -0.155213 0.372446 -0.185649
v 0.268837 -0.215032 -0.185650
v -0.268837 0.215032 -0.242481
v -0.310427 0.000001 -0.242481
v 0.310426 -0.000001 -0.242481
v 0.268837 0.215032 -0.242481
v 0.155213 -0.372446 -0.242482
v -0.268837 -0.215032 -0.242481
v 0.155213 0.372446 -0.242481
v 0.000000 0.430063 -0.242481
v -0.155213 0.372446 -0.242481
v 0.268837 -0.215032 -0.242481
vn -0.3480 0.9375 0.0000
vn -0.8108 0.5853 0.0000
vn -0.9818 0.1899 0.0000
vn -0.9818 -0.1899 -0.0000
vn -0.8108 -0.5853 -0.0000
vn -0.3480 -0.9375 -0.0000
vn 0.3480 -0.9375 -0.0000
vn 0.8108 -0.5853 -0.0000
vn 0.9818 -0.1899 -0.0000
vn 0.9818 0.1899 0.0000
vn -0.5852 -0.1132 -0.8029
vn 0.8108 0.5853 -0.0000
vn 0.3480 0.9375 -0.0000
vn 0.0000 -0.0000 1.0000
vn 0.0000 0.0000 -1.0000
vn 0.1703 0.4588 -0.8721
vn -0.1703 0.4588 -0.8721
vn -0.5852 0.1132 -0.8029
vn 0.4457 0.3217 -0.8354
vn -0.4457 0.3217 -0.8354
vn 0.5852 0.1132 -0.8029
vn 0.5852 -0.1132 -0.8029
vn 0.4457 -0.3217 -0.8354
vn 0.1703 -0.4588 -0.8721
vn -0.1703 -0.4588 -0.8721
vn -0.4457 -0.3217 -0.8354
usemtl tire
s 1
f 1//1 2//1 3//1 4//1
f 4//2 3//2 5//2 6//2
f 6//3 5//3 7//3 8//3
f 8//4 7//4 9//4 10//4
f 10//5 9//5 11//5 12//5
f 12//6 11//6 13//6 14//6
f 14//7 13//7 15//7 16//7
f 16//8 15//8 17//8 18//8
f 18//9 17//9 19//9 20//9
f 20//10 19//10 21//10 22//10
f 9//11 7//11 23//11 24//11
f 22//12 21//12 25//12 26//12
f 26//13 25//13 2//13 1//13
f 1//14 4//14 6//14 8//14 10//14 12//14 14//14 16//14 18//14 20//14 22//14 26//14
f 23//15 27//15 28//15 29//15
f 2//16 25//16 30//16 31//16
f 3//17 2//17 31//17 32//17
f 7//18 5//18 27//18 23//18
f 25//19 21//19 33//19 30//19
f 5//20 3//20 32//20 27//20
f 21//21 19//21 34//21 33//21
f 19//22 17//22 35//22 34//22
f 17//23 15//23 36//23 35//23
f 15//24 13//24 37//24 36//24
f 13//25 11//25 38//25 37//25
f 11//26 9//26 24//26 38//26
f 29//9 28//9 39//9 40//9
f 33//15 34//15 41//15 42//15
f 36//15 37//15 43//15 44//15
f 24//15 23//15 29//15 45//15
f 30//15 33//15 42//15 46//15
f 32//15 31//15 47//15 48//15
f 35//15 36//15 44//15 49//15
f 38//15 24//15 45//15 50//15
f 31//15 30//15 46//15 47//15
f 27//15 32//15 48//15 28//15
f 34//15 35//15 49//15 41//15
f 37//15 38//15 50//15 43//15
f 51//15 52//15 53//15 54//15
f 42//4 41//4 55//4 56//4
f 44//1 43//1 51//1 57//1
f 45//10 29//10 40//10 58//10
f 46//5 42//5 56//5 59//5
f 48//7 47//7 60//7 61//7
f 49//2 44//2 57//2 62//2
f 50//12 45//12 58//12 52//12
f 47//6 46//6 59//6 60//6
f 28//8 48//8 61//8 39//8
f 41//3 49//3 62//3 55//3
f 43//13 50//13 52//13 51//13
f 54//6 53//6 63//6 64//6
f 40//15 39//15 65//15 66//15
f 56//15 55//15 67//15 68//15
f 57//15 51//15 54//15 69//15
f 58//15 40//15 66//15 70//15
f 59//15 56//15 68//15 71//15
f 61//15 60//15 72//15 73//15
f 62//15 57//15 69//15 74//15
f 52//15 58//15 70//15 53//15
f 60//15 59//15 71//15 72//15
f 39//15 61//15 73//15 65//15
f 55//15 62//15 74//15 67//15
f 66//3 65//3 75//3 76//3
f 68//10 67//10 77//10 78//10
f 69//7 54//7 64//7 79//7
f 70//4 66//4 76//4 80//4
f 71//12 68//12 78//12 81//12
f 73//1 72//1 82//1 83//1
f 74//8 69//8 79//8 84//8
f 53//5 70//5 80//5 63//5
f 72//13 71//13 81//13 82//13
f 65//2 73//2 83//2 75//2
f 67//9 74//9 84//9 77//9
usemtl wheelhub
f 83//15 82//15 81//15 78//15 77//15 84//15 79//15 64//15 63//15 80//15 76//15 75//15
